<?xml version="1.0" standalone="no"?><!DOCTYPE svg PUBLIC "-//W3C//DTD SVG 1.1//EN" "http://www.w3.org/Graphics/SVG/1.1/DTD/svg11.dtd"><svg t="1641393212105" class="icon" viewBox="0 0 1024 1024" version="1.1" xmlns="http://www.w3.org/2000/svg" p-id="3380" xmlns:xlink="http://www.w3.org/1999/xlink" width="200" height="200"><defs><style type="text/css"></style></defs><path d="M879.01184 76.02176l-63.747413 4.70016v124.740267l-56.705707-24.302934-56.705707 24.302934V89.081173L262.42048 121.480533l37.75488 798.788267 578.8672 27.706027zM581.3248 240.274773v0.006827c108.076373 0 170.164907 59.01312 167.099733 178.5856l-123.398826 3.072c2.300587-64.385707-25.30304-70.519467-40.63232-70.519467-14.56128 0-39.082667 4.601173-39.082667 39.092907 0 85.080747 210.015573 80.479573 210.015573 252.177067 0 96.57344-75.12064 141.021867-170.932906 141.021866-98.87744 0-185.490773-33.723733-175.527254-181.6576h129.539414c-1.532587 59.784533 11.502933 81.257813 44.458666 81.257814 25.2928 0 36.785493-14.564693 36.785494-39.092907 0-87.381333-206.946987-90.453333-206.946987-250.65472 0-91.979093 60.545707-153.2928 168.618667-153.2928z" fill="#EC407A" p-id="3381"></path><path d="M212.524373 121.480533H144.95744l28.3136 798.788267h77.0048z" fill="#BA68C8" p-id="3382"></path></svg>